<svg width="617" height="384" viewBox="0 0 617 384" fill="none"
	xmlns="http://www.w3.org/2000/svg" class='shadow'
	>
<path d="M412.754 307.589C388.036 364.526 321.884 390.681 265 366.009C208.116 341.336 182.041 275.179 206.759 218.242C231.478 161.305 297.63 135.149 354.514 159.822C411.398 184.494 437.473 250.652 412.754 307.589Z" fill="#252525"/>
<path d="M413.835 322.664C383.736 375.184 318.35 397.811 261.579 373.188C204.785 348.555 176.656 285.319 194.517 227.453C195.339 224.791 198.308 223.503 200.86 224.611L411.582 316.091C414.135 317.199 415.22 320.247 413.835 322.664Z" fill="#F8F8F8"/>
<path fill-rule="evenodd" clip-rule="evenodd" d="M409.56 320.458C380.619 370.744 317.928 392.384 263.495 368.775C209.039 345.156 182.03 284.564 199.048 229.069L409.56 320.458ZM261.579 373.188C318.35 397.811 383.736 375.184 413.835 322.664C415.22 320.247 414.135 317.199 411.582 316.091L200.86 224.611C198.308 223.503 195.339 224.791 194.517 227.453C176.656 285.319 204.785 348.555 261.579 373.188Z" fill="#252525"/>
<path d="M424.668 298.411C442.484 240.564 414.353 177.376 357.583 152.753C300.788 128.119 235.369 150.78 205.287 203.346C203.903 205.764 204.99 208.811 207.544 209.918L418.327 301.257C420.88 302.363 423.848 301.074 424.668 298.411Z" fill="#FF4C41"/>
<path fill-rule="evenodd" clip-rule="evenodd" d="M420.136 296.798C437.111 241.322 410.1 180.775 355.667 157.166C301.211 133.546 238.488 155.218 209.563 205.549L420.136 296.798ZM357.583 152.753C414.353 177.376 442.484 240.564 424.668 298.411C423.848 301.074 420.88 302.363 418.327 301.257L207.544 209.918C204.99 208.811 203.903 205.764 205.287 203.346C235.369 150.78 300.788 128.119 357.583 152.753Z" fill="#252525"/>
<path d="M350.22 280.465C340.509 302.834 314.521 313.109 292.174 303.416C269.826 293.724 259.583 267.733 269.293 245.365C279.004 222.997 304.993 212.722 327.34 222.414C349.687 232.107 359.931 258.097 350.22 280.465Z" fill="#252525"/>
<path d="M335.506 274.084C329.326 288.318 312.788 294.857 298.567 288.689C284.346 282.521 277.827 265.981 284.007 251.747C290.187 237.513 306.725 230.974 320.946 237.142C335.167 243.31 341.686 259.849 335.506 274.084Z" fill="#F8F8F8"/>
<path d="M328.149 270.893C323.735 281.06 311.922 285.731 301.764 281.325C291.606 276.919 286.95 265.105 291.364 254.938C295.778 244.771 307.591 240.1 317.749 244.506C327.907 248.912 332.563 260.725 328.149 270.893Z" fill="#F8F8F8"/>
<path fill-rule="evenodd" clip-rule="evenodd" d="M303.68 276.912C311.403 280.261 320.384 276.71 323.74 268.98C327.096 261.25 323.556 252.268 315.833 248.919C308.11 245.569 299.129 249.12 295.773 256.85C292.417 264.58 295.957 273.562 303.68 276.912ZM301.764 281.325C311.922 285.731 323.735 281.06 328.149 270.893C332.563 260.725 327.907 248.912 317.749 244.506C307.591 240.1 295.778 244.771 291.364 254.938C286.95 265.105 291.606 276.919 301.764 281.325Z" fill="#252525"/>
<path fill-rule="evenodd" clip-rule="evenodd" d="M262.473 179.318C262.473 179.318 293.714 170.518 311.997 161.845C313.235 161.258 314.481 160.723 315.677 160.21C318.484 159.006 321.007 157.924 322.457 156.574C326.22 153.071 313.656 151.829 307.969 151.677C286.474 151.102 261.532 159.1 248.841 173.864C245.378 177.891 243.919 182.023 247.757 183.32C250.384 184.208 262.473 179.318 262.473 179.318ZM232.82 185.642C230.975 187.726 229.734 190.931 231.875 192.704C233.984 194.451 238.584 190.646 238.584 190.646C238.584 190.646 242.984 186.229 241.165 184.243C239.785 182.735 235.069 183.101 232.82 185.642ZM224.171 198.383C223.45 197.506 223.551 196.548 223.949 195.483C224.64 193.634 227.604 191.849 228.614 193.543C229.143 194.43 228.974 195.226 228.596 196.188C227.89 197.984 225.394 199.873 224.171 198.383Z" fill="white" fill-opacity="0.8"/>
<path d="M38.9387 135.797L26.5778 139.294L19.8626 109.956C56.6779 98.9447 80.5268 95.9069 91.4093 100.843C102.338 105.721 109.258 115.139 112.169 129.096C115.246 150.7 102.584 167.328 74.1815 178.982L78.9002 215.156L61.2445 218.452L38.9387 135.797ZM69.8325 153.241C83.8034 146.757 90.1647 140.014 88.9163 133.013C87.6732 128.898 85.4797 126.385 82.3357 125.474C79.2436 124.556 73.3843 125.416 64.7578 128.052L69.8325 153.241Z" fill="#FDCE29"/>
<path d="M149.626 102.815C161.65 101.482 172.369 104.467 181.783 111.771C191.191 119.023 196.536 128.431 197.818 139.997C199.106 151.614 195.957 162.016 188.372 171.205C180.781 180.341 170.973 185.576 158.95 186.909C146.926 188.242 136.21 185.283 126.802 178.031C117.388 170.727 112.037 161.267 110.749 149.649C109.467 138.084 112.622 127.733 120.213 118.597C127.798 109.408 137.603 104.148 149.626 102.815ZM181.209 132.152C180.961 134.647 179.979 136.908 178.263 138.936C175.895 141.718 172.872 143.313 169.192 143.721C165.513 144.129 162.216 143.261 159.303 141.117C156.435 138.915 154.809 136.076 154.424 132.601C154.039 129.127 155.007 126.027 157.328 123.302C159.701 120.571 162.727 119.002 166.407 118.594C167.132 118.514 167.812 118.491 168.445 118.526C165.434 117.39 162.192 117.014 158.719 117.399C152.967 118.037 148.264 120.579 144.613 125.027C141.007 129.416 139.515 134.412 140.136 140.013C140.757 145.614 143.307 150.161 147.787 153.655C152.318 157.142 157.46 158.567 163.213 157.929C168.965 157.291 173.645 154.778 177.25 150.388C180.907 145.993 182.426 140.994 181.805 135.393C181.678 134.252 181.48 133.172 181.209 132.152Z" fill="#FDCE29"/>
<path d="M185.187 105.566L183.573 95.2712L215.059 86.1106L220.175 123.028L246.561 81.3581L271.538 98.6701L242.094 141.152L294.692 167.686L295.276 190.695L231.873 156.853L236.315 194.791L214.91 199.762L198.774 102.485L185.187 105.566Z" fill="#FDCE29"/>
<path d="M349.065 122.913L366.234 137.232C358.003 152.425 344.898 161.044 326.92 163.089C298.312 166.261 282.412 154.873 279.22 128.924C276.277 100.481 287.552 84.8198 313.044 81.941C333.349 80.0575 346.292 87.4949 351.875 104.253L318.321 138.056C333.483 138.055 343.731 133.007 349.065 122.913ZM305.15 130.696L329.374 107.142C320.513 101.037 312.295 101.213 304.722 107.67C298.087 115.493 298.23 123.168 305.15 130.696Z" fill="#FDCE29"/>
<path d="M360.849 162.478L363.109 76.3906L384.453 72.2918L394.405 112.374L399.873 62.3136L420.794 57.2379L452.931 178.178L422.121 177.813L406.912 115.87L397.585 156.673L386.06 124.403L381.976 165.648L360.849 162.478Z" fill="#FDCE29"/>
<path d="M477.066 66.5129C489.09 65.1799 499.809 68.1652 509.222 75.469C518.63 82.7209 523.976 92.1295 525.258 103.695C526.546 115.312 523.397 125.715 515.812 134.903C508.221 144.039 498.413 149.274 486.389 150.607C474.366 151.94 463.65 148.981 454.242 141.729C444.828 134.425 439.477 124.965 438.189 113.348C436.907 101.782 440.062 91.4315 447.653 82.295C455.238 73.1066 465.042 67.8459 477.066 66.5129ZM508.649 95.8499C508.401 98.3449 507.419 100.606 505.702 102.634C503.335 105.416 500.312 107.012 496.632 107.42C492.952 107.828 489.656 106.959 486.743 104.815C483.875 102.613 482.249 99.7742 481.864 96.2995C481.479 92.8247 482.446 89.7249 484.768 87.0001C487.14 84.2696 490.167 82.7003 493.846 82.2924C494.572 82.2119 495.251 82.1891 495.885 82.2239C492.873 81.0878 489.632 80.7122 486.159 81.0971C480.406 81.7349 475.704 84.2775 472.053 88.7248C468.447 93.1145 466.955 98.1099 467.576 103.711C468.197 109.312 470.747 113.859 475.227 117.353C479.758 120.84 484.9 122.265 490.653 121.627C496.405 120.99 501.084 118.476 504.69 114.086C508.347 109.691 509.865 104.692 509.244 99.0914C509.118 97.9504 508.919 96.8699 508.649 95.8499Z" fill="#FDCE29"/>
<path d="M527.971 149.462L521.048 68.5667L514.873 68.9364L513.389 55.556L540.175 53.6889L565.44 104.122L563.161 45.9431L583.727 41.2217L589.529 159.569L567.236 157.945L543.361 107.988L547.941 149.296L527.971 149.462Z" fill="#FDCE29"/>
<path fill-rule="evenodd" clip-rule="evenodd" d="M61.2448 218.453L38.9391 135.797L26.5781 139.294L19.863 109.956C56.6783 98.9449 80.5272 95.9071 91.4097 100.843C97.9151 103.747 103 108.259 106.665 114.38C109.156 118.542 110.991 123.447 112.17 129.096C112.315 130.119 112.426 131.131 112.501 132.132C112.873 131.03 113.296 129.942 113.77 128.868C113.787 128.829 113.804 128.79 113.822 128.751C115.397 125.215 117.527 121.83 120.213 118.597C120.892 117.775 121.588 116.985 122.302 116.225C129.57 108.499 138.679 104.029 149.627 102.815C156.488 102.054 162.924 102.7 168.935 104.751C169.871 105.071 170.798 105.425 171.714 105.813C172.15 105.998 172.584 106.19 173.016 106.39C173.034 106.399 173.053 106.407 173.071 106.416C173.614 106.669 174.154 106.934 174.69 107.212C177.131 108.477 179.496 109.996 181.783 111.771C183.968 113.455 185.933 115.255 187.68 117.172C187.741 117.239 187.802 117.307 187.863 117.375C188.181 117.728 188.491 118.085 188.794 118.445C193.891 124.52 196.899 131.704 197.818 139.997C198.637 147.381 197.663 154.275 194.896 160.678C193.311 164.348 191.136 167.857 188.372 171.205C180.781 180.342 170.974 185.576 158.95 186.909C146.926 188.242 136.21 185.283 126.802 178.031C122.14 174.414 118.475 170.268 115.806 165.594C113.085 160.829 111.4 155.514 110.75 149.65C110.672 148.947 110.61 148.248 110.565 147.554C110.301 148.299 110.012 149.037 109.697 149.766C107.619 154.583 104.432 159.05 100.138 163.167C93.8563 169.188 85.2044 174.46 74.1819 178.982L78.9006 215.156L61.2448 218.453ZM82.3361 125.474C79.244 124.557 73.3847 125.416 64.7582 128.053L69.8329 153.241C74.889 150.894 78.9485 148.514 82.0113 146.1C87.4115 141.843 89.7133 137.481 88.9167 133.013C87.6736 128.898 85.48 126.385 82.3361 125.474ZM88.6945 187.036L93.773 225.969L51.5726 233.847L29.5737 152.329L16.7009 155.97L4.05942 100.741L16.0383 97.1579C34.7841 91.551 50.7293 87.8172 63.6736 86.1684C76.0022 84.598 87.8619 84.5842 96.8802 88.6591C104.79 92.1967 111.044 97.41 115.757 103.937C124.691 95.7708 135.622 90.9277 148.155 89.5382C155.539 88.7195 162.644 89.1926 169.384 90.9492L168.566 85.7263L226.16 68.9693L228.394 85.0898L242.728 62.4532L276.38 85.7781C284.89 75.4764 297.356 70.27 311.546 68.6676L311.678 68.6526L311.811 68.6404C323.722 67.5354 335.036 69.012 344.627 74.5229C346.435 75.562 348.13 76.7143 349.714 77.971L350.047 65.2972L386.891 58.2218L387.621 51.5409L430.339 41.1772L438.613 72.3161C448.286 61.3045 460.829 54.8734 475.595 53.2364C484.134 52.2896 492.3 53.0704 499.96 55.5657L498.589 43.1974L548.121 39.7448L549.681 42.8588L549.389 35.3995L596.28 24.6351L603.602 173.987L558.538 170.705L554.664 162.598L515.726 162.923L514.947 153.821C507.102 159.385 498.004 162.76 487.862 163.884C478.848 164.883 470.249 163.968 462.218 161.146L470.349 191.743L411.626 191.048L407.377 173.746L400.404 204.251L391.977 180.656L347.195 173.936L347.254 171.668C341.481 174.025 335.191 175.593 328.431 176.362L328.392 176.366C321.408 177.141 314.641 177.198 308.265 176.328L309.202 213.267L248.1 180.653L250.963 205.102L204.072 215.994L198.154 180.32C188.369 191.818 175.557 198.508 160.422 200.186C145.037 201.892 130.859 198.018 118.657 188.613L118.624 188.587C113.696 184.764 109.578 180.413 106.307 175.578C101.219 179.895 95.2968 183.691 88.6945 187.036ZM214.911 199.763L236.316 194.791L231.873 156.854L295.276 190.695L294.693 167.686L242.094 141.152L271.538 98.6703L246.561 81.3583L220.175 123.028L215.059 86.1108L183.574 95.2714L185.187 105.566L198.775 102.485L214.911 199.763ZM265.933 130.199L261.814 136.141L267.489 139.004C266.83 136.273 266.328 133.45 265.972 130.554L265.956 130.427L265.943 130.299C265.939 130.265 265.936 130.232 265.933 130.199ZM285.304 147.991C285.857 148.896 286.444 149.761 287.066 150.587C287.277 150.868 287.492 151.144 287.711 151.416C290.641 155.048 294.28 157.868 298.626 159.877C301.43 161.173 304.528 162.131 307.921 162.752C313.467 163.767 319.8 163.879 326.92 163.09C334.755 162.198 341.664 160.058 347.648 156.67C352.922 153.684 357.477 149.727 361.313 144.801L360.849 162.478L381.976 165.648L386.06 124.403L397.586 156.673L406.912 115.87L422.122 177.814L452.932 178.178L420.794 57.2381L399.873 62.3138L394.406 112.375L384.453 72.292L363.109 76.3908L361.613 133.378L349.065 122.914C348.885 123.255 348.699 123.59 348.508 123.92C346.79 126.877 344.62 129.37 341.998 131.399C336.266 135.836 328.374 138.055 318.322 138.056L351.876 104.254C351.117 101.975 350.221 99.8683 349.19 97.9342C342.637 85.6448 330.588 80.3138 313.045 81.9413C301.672 83.2256 293.128 87.054 287.415 93.4265C284.502 96.6753 282.325 100.585 280.883 105.157C280.35 106.848 279.917 108.629 279.585 110.501C278.629 115.892 278.508 122.033 279.221 128.925C280.156 136.531 282.184 142.887 285.304 147.991ZM314.627 102.855C319.326 102.177 324.242 103.606 329.374 107.142L305.151 130.696C301.025 126.209 299.309 121.669 300 117.077C300.468 113.966 302.042 110.83 304.723 107.67C307.91 104.952 311.211 103.347 314.627 102.855ZM443.032 88.945C438.823 96.3691 437.209 104.503 438.19 113.348C439.478 124.965 444.828 134.425 454.242 141.729C455.378 142.605 456.533 143.418 457.707 144.168C466.257 149.633 475.818 151.78 486.39 150.607C497.25 149.403 506.302 145.017 513.545 137.447C514.322 136.635 515.077 135.788 515.812 134.903C520.818 128.839 523.892 122.246 525.033 115.125L527.971 149.462L547.941 149.296L543.362 107.988L567.236 157.945L589.53 159.569L583.728 41.2219L563.161 45.9433L565.44 104.123L540.175 53.6891L513.39 55.5562L514.873 68.9366L521.049 68.5669L523.281 94.6496C521.739 90.0955 519.414 85.9565 516.308 82.2326C516.083 81.9633 515.855 81.6962 515.622 81.4312C513.752 79.3039 511.62 77.3166 509.223 75.4692C508.875 75.1993 508.525 74.9354 508.174 74.6773C506.058 73.1234 503.878 71.7832 501.633 70.6568C501.261 70.47 500.887 70.2891 500.511 70.1141C500.493 70.1056 500.474 70.097 500.456 70.0885C499.118 69.4677 497.757 68.9213 496.375 68.4493C490.363 66.3979 483.927 65.7525 477.067 66.5131C465.043 67.8461 455.238 73.1068 447.653 82.2952C445.867 84.4446 444.327 86.6612 443.032 88.945ZM468.434 95.1216C467.525 97.8062 467.239 100.669 467.576 103.711C468.197 109.312 470.748 113.859 475.227 117.353C479.758 120.84 484.9 122.265 490.653 121.628C491.998 121.478 493.285 121.227 494.512 120.872C495.724 120.523 496.878 120.074 497.975 119.525C500.521 118.25 502.76 116.437 504.69 114.086C506.907 111.422 508.338 108.536 508.983 105.429C508.982 105.433 508.984 105.425 508.983 105.429C509.4 103.414 509.489 101.293 509.245 99.0915C509.118 97.9506 508.92 96.8701 508.649 95.8501C508.531 97.0369 508.247 98.1709 507.797 99.2521C507.301 100.444 506.603 101.571 505.703 102.634C503.346 105.404 500.34 106.997 496.683 107.414C496.666 107.416 496.649 107.418 496.633 107.42C496.619 107.421 496.605 107.423 496.591 107.424C495.163 107.579 493.793 107.541 492.48 107.311C490.426 106.95 488.514 106.118 486.743 104.815C484.238 102.891 482.68 100.481 482.07 97.586C482.019 97.3455 481.975 97.1017 481.937 96.8545C481.937 96.8556 481.937 96.8535 481.937 96.8545C481.909 96.6724 481.885 96.4854 481.864 96.2997C481.479 92.8249 482.447 89.7251 484.768 87.0003C485.345 86.336 485.961 85.7404 486.616 85.2136C488.652 83.5749 491.062 82.6013 493.847 82.2926C494.196 82.2538 494.535 82.2285 494.863 82.2165C495.216 82.2035 495.557 82.206 495.885 82.2241C495.191 81.9621 494.484 81.7406 493.766 81.5595C493.424 81.4735 493.08 81.3967 492.733 81.3289C490.643 80.9205 488.451 80.8433 486.16 81.0973C483.898 81.348 481.8 81.893 479.863 82.7321C479.841 82.7416 479.82 82.7511 479.798 82.7607C476.835 84.0573 474.253 86.0454 472.053 88.725C470.406 90.7307 469.199 92.8629 468.434 95.1216ZM154.63 133.888C154.579 133.647 154.535 133.404 154.497 133.156C154.497 133.157 154.497 133.155 154.497 133.156C154.469 132.974 154.445 132.787 154.424 132.602C154.039 129.127 155.007 126.027 157.328 123.302C157.905 122.638 158.521 122.042 159.176 121.515C161.212 119.877 163.622 118.903 166.407 118.594C166.756 118.556 167.095 118.53 167.423 118.518C167.776 118.505 168.117 118.508 168.445 118.526C167.751 118.264 167.044 118.042 166.326 117.861C165.984 117.775 165.64 117.699 165.294 117.631C163.203 117.222 161.011 117.145 158.72 117.399C156.459 117.65 154.36 118.195 152.423 119.034C152.401 119.043 152.38 119.053 152.358 119.063C149.395 120.359 146.813 122.347 144.613 125.027C142.966 127.033 141.76 129.165 140.994 131.423C140.085 134.108 139.799 136.971 140.136 140.013C140.757 145.614 143.308 150.161 147.787 153.655C152.318 157.142 157.46 158.567 163.213 157.929C164.558 157.78 165.845 157.529 167.073 157.174C168.284 156.825 169.438 156.376 170.535 155.826C173.081 154.552 175.32 152.739 177.25 150.388C179.467 147.724 180.898 144.838 181.543 141.731C181.542 141.735 181.544 141.727 181.543 141.731C181.96 139.715 182.049 137.595 181.805 135.393C181.678 134.252 181.48 133.172 181.209 132.152C181.092 133.339 180.807 134.473 180.357 135.554C179.861 136.746 179.163 137.873 178.263 138.936C175.907 141.706 172.9 143.299 169.243 143.716C169.226 143.718 169.209 143.72 169.193 143.722C169.179 143.723 169.165 143.725 169.151 143.726C167.723 143.881 166.353 143.843 165.04 143.613C162.986 143.252 161.074 142.42 159.303 141.117M155.958 143.093C154.316 141.802 153.623 140.515 153.404 138.542C153.201 136.711 153.526 135.366 154.63 133.888" fill="#225FA8"/>
</svg>
